PathFileType	4	(X/Y/Z)	C:\Users\dbl\Desktop\LZH\BX\Trimmed_bx_n_0_1801.trc
DataRate	CameraRate	NumFrames	NumMarkers	Units	OrigDataRate	OrigDataStartFrame	OrigNumFrames
50.00	50.00	       6	43	mm	50.00	125	       997
Frame#	Time	Top.Head			R.Acromium			L.Acromium			Sternum			R.ASIS			L.ASIS			V.Sacral			R.Thigh.Upper			R.Thigh.Front			R.Thigh.Rear			R.Knee.Lat			R.Knee.Med			R.Shank.Upper			R.Shank.Front			R.Shank.Rear			R.Ankle.Lat			R.Midfoot.Lat			R.Toe.Lat			R.Toe.Tip			R.Toe.Med			R.Ankle.Med			R.Midfoot.Sup			R.Heel			L.Thigh.Upper			L.Thigh.Front			L.Thigh.Rear			L.Knee.Lat			L.Knee.Med			L.Shank.Upper			L.Shank.Front			L.Shank.Rear			L.Ankle.Lat			L.Midfoot.Lat			L.Toe.Lat			L.Toe.Tip			L.Toe.Med			L.Ankle.Med			L.Midfoot.Sup			L.Heel			origin1 front left			origin2 front right			origin 3 back right			origin 4 back leftt			
		X1	Y1	Z1	X2	Y2	Z2	X3	Y3	Z3	X4	Y4	Z4	X5	Y5	Z5	X6	Y6	Z6	X7	Y7	Z7	X8	Y8	Z8	X9	Y9	Z9	X10	Y10	Z10	X11	Y11	Z11	X12	Y12	Z12	X13	Y13	Z13	X14	Y14	Z14	X15	Y15	Z15	X16	Y16	Z16	X17	Y17	Z17	X18	Y18	Z18	X19	Y19	Z19	X20	Y20	Z20	X21	Y21	Z21	X22	Y22	Z22	X23	Y23	Z23	X24	Y24	Z24	X25	Y25	Z25	X26	Y26	Z26	X27	Y27	Z27	X28	Y28	Z28	X29	Y29	Z29	X30	Y30	Z30	X31	Y31	Z31	X32	Y32	Z32	X33	Y33	Z33	X34	Y34	Z34	X35	Y35	Z35	X36	Y36	Z36	X37	Y37	Z37	X38	Y38	Z38	X39	Y39	Z39	X40	Y40	Z40	X41	Y41	Z41	X42	Y42	Z42	X43	Y43	Z43	

125	2.480	-386.85284	247.15503	1410.94153	-447.05560	55.83056	1141.06982	-468.24124	408.77463	1143.31079	-507.09384	234.34691	938.63977	-739.18689	120.40254	772.85406	-718.14240	333.74280	768.83459	-933.22223	237.58049	829.50745	-721.68628	53.01985	671.10406	-644.05811	113.94830	735.09863	-613.26593	51.31639	624.55737	-526.93500	74.01201	538.71497	-486.44055	181.35347	526.90613	-544.67383	76.09413	491.79153	-468.16708	125.86838	474.03015	-572.21527	75.45236	449.96133	-681.83868	141.42264	212.76088	-622.60712	76.90060	166.66817	-580.74451	51.27371	158.82564	-502.67673	91.00639	161.27361	-540.08972	144.98486	160.96436	-632.07452	215.50642	207.69823	-600.57892	188.79651	164.44159	-726.80029	209.97786	172.24551	-724.86993	436.33548	688.39832	-631.80658	384.18405	741.59253	-626.33051	439.24814	627.46997	-508.54950	426.10364	552.17316	-477.27661	313.37048	530.39880	-509.00897	428.44806	515.83185	-443.54144	373.57416	500.16443	-579.53937	423.00110	474.30585	-665.92871	400.12042	214.25357	-586.88055	455.81580	168.43230	-551.23505	468.31729	167.03984	-489.54675	428.82092	168.40381	-524.51337	383.58456	176.56706	-629.50897	313.01956	198.08128	-590.74628	337.93796	163.77078	-729.64740	328.42422	163.88185	-443.72198	448.66833	146.66304	-450.27734	75.17563	142.92564	-806.35101	82.58247	140.89285	-799.87018	457.15692	145.53854	
126	2.500	-384.93875	247.70468	1402.71985	-445.95599	56.56746	1133.15564	-466.72894	409.47375	1135.41296	-507.14200	234.84879	931.16077	-740.69177	120.86591	768.25903	-719.00446	333.77774	763.69928	-935.02197	238.20697	824.50592	-722.14557	54.01399	668.07617	-645.56366	115.24702	733.10260	-613.24774	52.64077	623.04993	-526.06726	75.55392	538.10889	-486.12628	183.04012	526.71954	-543.54309	77.30020	491.56369	-467.36951	127.72144	473.83331	-571.13647	76.64109	449.57770	-681.39191	141.77014	212.86839	-622.23108	77.53199	167.14534	-580.60254	51.82706	159.22380	-502.67990	91.11382	161.27817	-540.02563	145.20848	160.71954	-631.89319	216.23196	207.49129	-600.45819	189.22165	164.18234	-726.68103	210.27890	172.00479	-725.63446	436.46631	685.09351	-633.31891	383.63928	739.34784	-626.24792	439.08160	625.64014	-507.73160	425.54083	551.49640	-476.93311	312.72995	529.74237	-508.06677	427.99606	515.52417	-442.74991	372.61600	500.03552	-578.73834	422.60910	474.09073	-665.74548	399.79517	214.21446	-586.71460	455.45325	168.54811	-551.27594	467.95319	167.19525	-489.59027	428.61032	168.80316	-524.37622	383.36795	176.43387	-629.46753	312.86005	197.77354	-590.65112	337.76572	163.58926	-729.64948	328.14862	163.89394	-443.73639	448.65314	146.64143	-450.29825	75.11262	142.94580	-806.37427	82.58833	140.91760	-799.84729	457.16956	145.58467	
127	2.520	-382.78278	248.31320	1394.83191	-444.92279	57.46728	1125.41760	-465.26825	410.18372	1127.87341	-507.39700	235.44107	924.10651	-742.13489	121.38599	763.94055	-719.84167	333.84207	758.67639	-936.66553	238.86584	819.82288	-722.76556	55.01873	665.33203	-647.05640	116.47244	731.26355	-613.31683	53.93649	621.62994	-525.38202	76.93748	537.64679	-485.86633	184.60510	526.54730	-542.56219	78.28441	491.40942	-466.69391	129.39078	473.68289	-570.15265	77.66356	449.24060	-681.02008	142.12254	213.12715	-621.90686	78.06201	167.60373	-580.49146	52.37740	159.57080	-502.70282	91.25346	161.28682	-539.97125	145.42950	160.53659	-631.75806	216.93977	207.26901	-600.45935	189.61272	163.88129	-726.59149	210.54652	171.74388	-726.46790	436.62857	682.07068	-634.82520	383.27060	737.34998	-626.28247	438.97791	623.96466	-507.06638	425.13086	550.99164	-476.64856	312.19876	529.18689	-507.36847	427.56024	515.21820	-442.11768	371.73889	499.99933	-578.09082	422.21146	473.92233	-665.56268	399.45261	214.11960	-586.57379	455.18875	168.64972	-551.33417	467.71112	167.26213	-489.65381	428.40842	169.17230	-524.28418	383.15601	176.33040	-629.46185	312.75790	197.48849	-590.50128	337.48483	163.48218	-729.67310	327.86349	163.84230	-443.76889	448.62515	146.63428	-450.30948	75.07566	142.99812	-806.39569	82.55642	140.96202	-799.86029	457.11032	145.53857	
128	2.540	-380.35364	248.97977	1387.33447	-443.96381	58.43958	1118.05164	-463.93958	410.84998	1120.75122	-507.88220	236.09917	917.55774	-743.55304	122.05832	759.86389	-720.68982	333.93402	753.76184	-938.14880	239.53281	815.49567	-723.46655	55.87249	662.92065	-648.52112	117.63817	729.50647	-613.46210	55.00348	620.35968	-524.82465	78.06096	537.33588	-485.65387	185.94063	526.35730	-541.75110	79.09265	491.17950	-466.12299	130.78000	473.58627	-569.26013	78.46353	448.98071	-680.84796	142.40231	213.49922	-621.66974	78.45811	168.01634	-580.41278	52.85392	159.83197	-502.74356	91.40866	161.28145	-539.92511	145.62708	160.40115	-631.72058	217.56203	206.99828	-600.55219	189.93764	163.52296	-726.60089	210.71246	171.48309	-727.32037	436.85547	679.27692	-636.29980	383.20172	735.52216	-626.43207	439.01974	622.36243	-506.50290	425.03705	550.58289	-476.38080	311.95135	528.77020	-506.84961	427.33154	514.90771	-441.62192	371.26675	499.94388	-577.55652	421.94977	473.71188	-665.44586	399.20270	214.03937	-586.49133	455.09787	168.72710	-551.42670	467.67160	167.18813	-489.73105	428.29117	169.38744	-524.25635	383.03229	176.24583	-629.47797	312.69733	197.27887	-590.31598	337.15015	163.48996	-729.71442	327.65582	163.76357	-443.80893	448.60867	146.65424	-450.31766	75.05132	143.06590	-806.38959	82.49632	141.01471	-799.87720	457.01840	145.43811	
129	2.560	-377.61459	249.70149	1380.28967	-443.10916	59.39773	1111.30737	-462.78281	411.48141	1114.16272	-508.50949	236.78615	911.55994	-744.96277	122.90232	755.93976	-721.55463	334.05331	748.95520	-939.49609	240.16928	811.53888	-724.15533	56.50415	660.81030	-649.95660	118.72556	727.75775	-613.65027	55.68035	619.29034	-524.33685	78.85954	537.12976	-485.45001	186.97253	526.20483	-541.05823	79.77571	490.83850	-465.62210	131.84418	473.53067	-568.50330	79.05730	448.77686	-680.85699	142.56749	213.88452	-621.49603	78.73947	168.36716	-580.34778	53.21915	159.99719	-502.80319	91.53970	161.26547	-539.88257	145.76872	160.30551	-631.80438	218.03952	206.70233	-600.65625	190.19562	163.17480	-726.68842	210.77956	171.26726	-728.12592	437.20059	676.66980	-637.69214	383.44830	733.79346	-626.66992	439.28030	620.81097	-506.03986	425.32123	550.17938	-476.11615	312.11450	528.51202	-506.41110	427.46249	514.57880	-441.19281	371.35895	499.85757	-577.08868	422.01483	473.43094	-665.43127	399.13770	214.01756	-586.49725	455.19312	168.72797	-551.54651	467.86487	166.95152	-489.80005	428.30170	169.39745	-524.27747	383.04312	176.13942	-629.49316	312.66544	197.17795	-590.15210	336.90094	163.57048	-729.74866	327.56516	163.71193	-443.83920	448.60614	146.68321	-450.32797	75.03319	143.11664	-806.36005	82.43540	141.06235	-799.87299	456.93195	145.32246	
130	2.580	-374.54007	250.47621	1373.75635	-442.39679	60.32583	1105.30200	-461.77997	412.14444	1108.21411	-509.09515	237.46246	906.11084	-746.35461	123.84328	752.10034	-722.43030	334.19971	744.25769	-940.69403	240.75790	807.87146	-724.77155	56.93098	658.90735	-651.32111	119.67899	726.01648	-613.83923	56.00146	618.35974	-523.87134	79.33787	536.93127	-485.20773	187.69229	526.12018	-540.42725	80.31337	490.45633	-465.14252	132.60623	473.47009	-567.89514	79.46555	448.60330	-680.91479	142.64984	214.17955	-621.35248	78.94689	168.63896	-580.27240	53.49966	160.09872	-502.87201	91.61574	161.24875	-539.83606	145.83752	160.23753	-631.95441	218.35504	206.42476	-600.69208	190.41010	162.92073	-726.76117	210.82123	171.14111	-728.85956	437.70438	674.23950	-638.94958	383.92957	732.14636	-626.97626	439.78043	619.33911	-505.67816	425.96609	549.77032	-475.82080	312.66870	528.39514	-506.01349	427.95300	514.21814	-440.76776	371.95145	499.81284	-576.68201	422.47708	473.12042	-665.48297	399.24576	214.03716	-586.59491	455.42459	168.61110	-551.66125	468.26364	166.57954	-489.84399	428.43451	169.22626	-524.31396	383.16364	176.00603	-629.47736	312.64536	197.18480	-590.08319	336.87054	163.60999	-729.75537	327.56149	163.71352	-443.85834	448.59509	146.70782	-450.33630	75.03755	143.11714	-806.33813	82.40286	141.09422	-799.84485	456.88992	145.22324	
